# xmcd CD database file
#
# Track frame offsets:
#	150
#	10580
#	30722
#	52922
#	65357
#	79082
#	93765
#	108055
#	127747
#	138552
#	149602
#	163515
#	177382
#	190467
#	205822
#	226890
#	239292
#	253887
#	267897
#	282807
#	303775
#	319070
#	334193
#
# Disc length: 4632 seconds
#
# Revision: 0
# Processed by: cddbd v1.5.1PL0 Copyright (c) Steve Scherf et al.
# Submitted via: CDex 1.51
#
DISCID=37121617
DTITLE=Louis Armstrong - What A Wonderful World
DYEAR=1996
DGENRE=Jazz
TTITLE0=What A Wonderful World
TTITLE1=A Kiss Built A Dream On
TTITLE2=Summertime
TTITLE3=Ramona
TTITLE4=C'est Si-Bon
TTITLE5=Blueberry Hill
TTITLE6=Can Anyone Explain
TTITLE7=When The Saints Go Marching In
TTITLE8=Hello Dolly
TTITLE9=Uncle Satchmo's Lullaby
TTITLE10=Dream A Little Dream Of Me
TTITLE11=Georgia On My Mind
TTITLE12=Takes Two To Tango
TTITLE13=La Vie En Rose
TTITLE14=Jeepers Creepers
TTITLE15=Cabaret
TTITLE16=We Have All The Time In The World
TTITLE17=I Got Rhythm
TTITLE18=Body And Soul
TTITLE19=(What I Did I Do To Be So) Black And Blue
TTITLE20=Mack The Knife
TTITLE21=On The Sunny Side Of The Street
TTITLE22=Honeysuckle Rose
EXTD=YEAR: 1996
EXTT0=
EXTT1=
EXTT2=
EXTT3=
EXTT4=
EXTT5=
EXTT6=
EXTT7=
EXTT8=
EXTT9=
EXTT10=
EXTT11=
EXTT12=
EXTT13=
EXTT14=
EXTT15=
EXTT16=
EXTT17=
EXTT18=
EXTT19=
EXTT20=
EXTT21=
EXTT22=
PLAYORDER=
